# xmcd CD database file
#
# Track frame offsets:
#	150
#	19182
#	40875
#	58177
#	78265
#	102265
#	121142
#	144877
#	171550
#	199125
#
# Disc length: 2863 seconds
#
# Revision: 0
# Processed by: cddbd v1.5.1PL0 Copyright (c) Steve Scherf et al.
# Submitted via: CDex 1.51
#
DISCID=840b2d0a
DTITLE=Misc - 幽★遊★白書　メモリアルボックス　DISC4
DYEAR=1995
DGENRE=Anime
TTITLE0=微笑みの爆弾
TTITLE1=ホームワークが終わらない
TTITLE2=アンバランスなKissをして
TTITLE3=さよならbyebye
TTITLE4=太陽がまた輝くとき
TTITLE5=デイドリーム　ジェネレーション
TTITLE6=見えない未来へ
TTITLE7=優しさは眠らない
TTITLE8=光の中で
TTITLE9=微笑みの爆弾（インストバージョン）
EXTD=YEAR: 1995
EXTT0=
EXTT1=
EXTT2=
EXTT3=
EXTT4=
EXTT5=
EXTT6=
EXTT7=
EXTT8=
EXTT9=
PLAYORDER=
